<svg width="20" height="20" viewBox="0 0 20 20" fill="none" xmlns="http://www.w3.org/2000/svg">
<g clip-path="url(#clip0_89_130)">
<path d="M10 0.000999451C4.48594 0.000999451 0 4.48694 0 10.0009C0 15.5148 4.48594 20.0008 10 20.0008C15.5141 20.0008 20 15.5148 20 10.0009C20 4.48694 15.5141 0.000999451 10 0.000999451ZM16.5166 4.71718C17.6392 6.09907 18.3304 7.84329 18.3879 9.74464C16.3083 9.31412 14.4252 9.36465 12.7629 9.69058C12.4619 8.98669 12.1503 8.31608 11.8358 7.6823C13.6462 6.90241 15.2223 5.90629 16.5166 4.71718ZM15.3901 3.57228C14.1053 4.74501 12.6164 5.61332 11.0918 6.25438C9.97281 4.2081 8.9022 2.66715 8.25 1.79146C8.81475 1.67115 9.39993 1.6066 10 1.6066C12.0506 1.6066 13.9307 2.34667 15.3901 3.57228ZM6.62835 2.31585C7.12084 2.95402 8.29389 4.55191 9.55396 6.82534C6.38708 7.8571 3.31417 8.03093 1.83756 8.04709C2.45304 5.47599 4.25356 3.36184 6.62835 2.31585ZM1.61438 9.65676C1.63022 9.65676 1.64553 9.65687 1.66169 9.65687C2.68199 9.65687 4.55134 9.58825 6.75209 9.18696C8.00766 8.958 9.19827 8.64983 10.3154 8.26791C10.6063 8.84754 10.8954 9.45895 11.1757 10.0998C9.61144 10.6034 8.29228 11.3281 7.24736 12.0476C5.49511 13.2543 4.26758 14.593 3.59729 15.4208C2.35627 13.9572 1.6056 12.0656 1.6056 10.0009C1.6056 9.8855 1.60967 9.77108 1.61438 9.65676ZM4.75429 16.5474C5.33134 15.8208 6.50589 14.4983 8.20494 13.3379C9.35958 12.5492 10.5541 11.9633 11.7839 11.5787C12.4975 13.4281 13.1066 15.4716 13.4698 17.6414C12.4114 18.1239 11.2372 18.3952 10 18.3952C8.01633 18.3952 6.19248 17.7021 4.75429 16.5474ZM14.947 16.7768C14.5726 14.7841 14.0144 12.9103 13.3691 11.1979C14.9565 10.9301 16.5971 10.9853 18.2821 11.3638C17.9187 13.5785 16.6864 15.5035 14.947 16.7768Z" fill="white" fill-opacity="0.7"/>
</g>
<defs>
<clipPath id="clip0_89_130">
<rect width="20" height="20" fill="white"/>
</clipPath>
</defs>
</svg>
